PathFileType	4	(X/Y/Z)	D:\TRACE\spotREDO_2-26-24\spot_justArm_Motion_2_1-v60.trc
DataRate	CameraRate	NumFrames	NumMarkers	Units	OrigDataRate	OrigDataStartFrame	OrigNumFrames
100.00	100.00	      41	9	mm	100.00	4376	      7000
Frame#	Time	front left toe			Front right toe			aft left toe			aft right toe			Arm			FL body			FR body			AL Body			AR Body			
		X1	Y1	Z1	X2	Y2	Z2	X3	Y3	Z3	X4	Y4	Z4	X5	Y5	Z5	X6	Y6	Z6	X7	Y7	Z7	X8	Y8	Z8	X9	Y9	Z9	

4376	43.750	-192.47511	14.11588	-193.52521	235.65317	18.83802	-121.45201	-298.46539	31.17885	422.96649	129.14415	36.71159	432.43735	-92.59495	615.24365	-813.21637	-52.80077	519.44757	-240.10226	99.96629	523.79645	-215.02740	-205.84348	602.37872	626.64154	-59.33089	602.48090	652.93945	
4377	43.760	-191.25146	14.63332	-193.03792	236.26808	18.60883	-121.62298	-297.04086	30.10620	423.44830	131.05894	36.26433	432.92215	-92.07858	616.24573	-813.12805	-51.95094	519.62219	-239.86890	101.33231	524.17029	-214.73332	-204.42024	601.48688	626.98120	-58.06561	601.57587	653.40094	
4378	43.770	-190.14238	15.12668	-192.78951	237.47453	19.49794	-120.70370	-295.79648	29.00221	423.87323	131.62543	34.92516	433.09149	-91.66165	617.35449	-812.83759	-50.90794	520.08990	-239.51071	102.23787	524.57605	-214.73250	-202.94193	600.67163	627.59045	-56.49129	600.67053	653.81995	
4379	43.780	-189.19197	15.64037	-192.40509	238.55888	19.46786	-120.79119	-294.89246	28.23901	424.07147	133.11453	34.22342	433.51822	-90.87637	618.14520	-812.68317	-49.84171	520.78168	-239.21283	103.42499	525.01404	-214.45422	-201.62425	599.79681	627.92444	-55.05212	599.67963	654.08728	
4380	43.790	-188.16594	16.39154	-191.81093	239.63065	19.86559	-120.27231	-293.48709	27.18202	424.64111	133.92522	33.14019	433.75018	-89.99760	619.04291	-812.53522	-48.98428	521.49329	-238.93678	104.39487	525.57220	-214.04372	-199.98627	598.87787	628.47174	-53.46688	598.61066	654.75555	
4381	43.800	-186.88545	16.47844	-191.70131	240.85368	20.64773	-119.67718	-292.56912	26.41076	424.92404	134.74377	31.99858	434.01828	-89.40159	619.61285	-812.46814	-47.72246	521.79370	-238.59485	105.49517	526.20453	-213.80418	-198.69911	597.93738	628.86200	-52.41872	597.84528	654.84698	
4382	43.810	-185.88086	17.09410	-191.45543	241.63712	19.98400	-120.21791	-291.70496	25.62236	425.25317	136.22003	31.26682	434.50305	-88.18683	620.10956	-811.82111	-46.26970	522.36884	-238.31970	106.73309	526.80316	-213.59364	-197.27547	596.89728	629.33936	-50.84731	596.77972	655.10352	
4383	43.820	-184.87463	17.36341	-190.95345	242.75746	20.37689	-119.78039	-290.28629	24.38685	425.61368	137.20126	30.07310	434.83548	-87.61534	620.75623	-812.03076	-45.32191	523.07428	-238.15135	108.15005	527.29510	-213.43762	-195.95708	595.92743	629.82373	-49.15419	595.88330	655.97577	
4384	43.830	-183.44490	17.97149	-190.53407	243.47934	20.64616	-119.54653	-289.05383	23.42504	426.00653	138.54337	29.66092	435.16364	-86.30212	620.99475	-811.62170	-43.89648	523.62305	-237.49503	109.26644	527.92157	-213.13470	-194.57921	595.13159	630.25635	-47.72647	594.88794	656.52252	
4385	43.840	-182.47408	18.81964	-190.32887	244.90701	21.06531	-119.04845	-288.20422	22.68043	426.33313	139.51854	28.49246	435.36600	-84.87864	621.28546	-811.66437	-42.66581	524.38690	-237.28772	110.48349	528.61969	-212.69728	-193.13351	594.33557	630.91815	-46.36933	593.75269	656.88422	
4386	43.850	-181.40884	18.84220	-190.21498	246.03679	21.82269	-118.41923	-287.03568	21.83430	426.57104	140.97716	27.35104	435.94952	-84.07273	621.43719	-811.68304	-41.66695	525.15668	-237.07622	111.72746	529.08948	-212.44061	-191.95464	593.46228	631.22809	-45.40731	593.01660	656.79968	
4387	43.860	-180.24016	19.59380	-189.66972	246.87271	21.56164	-118.48355	-285.81244	20.71192	427.07120	141.70073	26.69485	436.04767	-82.59268	621.37354	-810.80890	-40.09945	525.52698	-236.57054	113.29118	529.53290	-211.93846	-190.93182	592.69879	631.51709	-44.11143	592.12909	657.58728	
4388	43.870	-179.30249	19.93011	-189.31886	248.28777	22.29362	-117.63367	-284.95450	19.93129	427.12939	142.80917	25.65637	436.48788	-81.10239	621.18646	-810.36206	-38.76918	526.06799	-236.54324	114.46956	530.13940	-211.93152	-189.55898	591.97150	631.98450	-42.87993	591.35510	657.89795	
4389	43.880	-178.42780	20.60100	-189.00137	249.13522	22.21860	-117.61459	-283.81488	18.75032	427.59265	143.97032	24.66865	436.86365	-79.84818	621.07886	-810.12946	-37.18963	526.46082	-236.17651	116.16597	530.29901	-211.34413	-188.19359	591.16248	632.30585	-41.65368	590.44672	658.49548	
4390	43.890	-177.48466	21.36277	-188.20122	250.06538	22.53441	-117.00640	-282.86096	17.93914	427.87720	144.76591	23.84405	437.14371	-79.00550	621.16162	-810.03760	-35.71161	526.91510	-235.65955	117.37017	530.75861	-211.15341	-187.09543	590.47894	632.61694	-40.59359	589.73676	658.82263	
4391	43.900	-175.08110	20.67717	-188.55537	251.26411	22.94884	-116.74504	-281.87985	17.11433	427.97702	146.23070	22.84938	437.65054	-77.90321	620.98138	-809.96918	-34.13064	527.20685	-235.43471	118.99191	530.98444	-210.56699	-185.83640	589.56079	633.17889	-39.19820	588.70801	659.44501	
4392	43.910	-174.96944	22.28437	-188.14825	252.26189	23.21899	-116.45232	-280.75687	16.02036	428.22208	146.94519	21.81419	437.90796	-76.53649	620.60693	-809.50787	-32.69862	527.66339	-235.11281	120.41534	531.30786	-210.24490	-184.83313	588.83252	633.40912	-38.26815	587.88568	659.59625	
4393	43.920	-174.09743	22.57436	-187.90094	253.24706	23.58254	-115.99928	-279.81168	15.06773	428.66739	147.93254	20.71838	438.22873	-75.64432	620.52765	-809.27881	-31.35174	527.97797	-234.71072	122.13874	531.59589	-209.73242	-183.49101	588.07013	633.65778	-36.83979	587.05542	660.05798	
4394	43.930	-172.86974	23.16699	-187.33856	254.46840	23.82304	-115.83118	-279.38867	13.94980	429.17542	148.85199	19.79675	438.37390	-74.92332	620.42310	-809.22986	-29.95737	528.61182	-234.72740	123.21380	531.85718	-209.59222	-182.33131	587.37329	634.17444	-35.62305	586.21906	660.41284	
4395	43.940	-172.08144	23.61729	-186.54332	255.39069	24.16849	-115.27088	-277.88284	13.24326	429.31577	149.73524	19.00028	438.87018	-71.28094	620.07294	-806.69604	-28.33522	528.61725	-234.03256	124.87299	532.12567	-209.13644	-180.85745	586.68756	634.58728	-34.21371	585.39050	660.89081	
4396	43.950	-170.98369	24.04167	-186.49399	255.94789	24.28329	-115.07957	-277.31519	12.22125	429.74496	150.90054	17.97824	439.58368	-73.01472	619.87451	-808.25000	-27.04777	529.36200	-233.79192	126.21836	532.37537	-208.79399	-179.66843	585.71521	634.85156	-33.07548	584.37280	661.32458	
4397	43.960	-170.00182	24.43945	-186.20964	257.35907	24.64711	-114.56463	-276.41663	11.12024	430.00986	152.00507	17.23008	439.57245	-72.36388	619.64709	-808.06934	-25.62239	529.44989	-233.37819	127.61098	532.59784	-208.31587	-178.23305	584.82617	635.23541	-31.50427	583.55170	661.88110	
4398	43.970	-169.25470	25.05217	-185.80269	258.14615	24.95824	-114.05096	-275.54379	10.42010	430.24084	152.77516	16.14941	439.96216	-71.75443	619.57648	-807.92816	-24.17700	529.82904	-233.29210	129.02304	532.79718	-208.05617	-176.91835	584.20605	635.61731	-30.41519	582.37604	662.07019	
4399	43.980	-168.38605	25.70652	-185.69650	258.69577	25.16579	-114.00827	-274.56763	9.66627	430.63620	153.58499	15.07782	440.31793	-70.94093	619.42609	-807.37042	-23.04523	530.44714	-232.86331	130.42848	533.01300	-207.60312	-175.33849	583.23053	636.11072	-28.88230	581.60876	662.53845	
4400	43.990	-167.37939	26.05795	-185.26660	260.16882	25.72183	-113.44698	-273.55643	8.80520	430.98309	154.41643	14.23068	440.49033	-70.49736	619.47455	-807.17474	-21.57204	530.64807	-232.29570	131.71275	533.28113	-207.27357	-174.05273	582.34302	636.42126	-27.29086	580.51257	663.11523	
4401	44.000	-166.26044	26.47801	-184.78685	260.86856	25.91780	-113.24679	-272.53549	7.78866	431.10379	155.47868	13.05268	440.72061	-69.79519	619.60065	-807.39404	-20.44972	531.12347	-232.08362	132.96333	533.51794	-206.99069	-172.51485	581.35040	637.01025	-25.86370	579.39899	663.37573	
4402	44.010	-165.52693	26.83361	-184.50223	261.37762	26.12594	-113.12913	-271.74274	6.85690	431.34924	156.16620	12.02143	441.12570	-68.72414	619.80084	-807.82300	-19.36943	531.57611	-231.71394	134.03667	534.00598	-206.65372	-171.11293	580.33630	637.50269	-24.34142	578.32977	663.85175	
4403	44.020	-164.84636	27.43658	-184.24699	262.43927	26.51334	-112.68387	-271.17059	6.16538	431.70480	157.03307	11.29567	441.39468	-68.34011	620.74115	-809.47369	-18.14875	531.80176	-231.30434	135.25764	534.24274	-206.29617	-169.41385	579.36737	638.22260	-22.75748	577.20972	664.49194	
4404	44.030	-164.21091	27.87803	-183.86684	263.15155	27.45300	-111.90472	-270.03577	5.08403	432.08548	157.81102	10.15192	441.72900	-67.55832	621.71692	-811.51111	-17.10388	532.22278	-230.73271	136.06473	534.65057	-205.96559	-167.78476	578.50275	639.01703	-21.27730	576.20551	665.00677	
4405	44.040	-163.48550	28.26133	-183.33472	263.50436	27.07882	-112.09564	-269.34930	4.64769	432.19821	158.95018	9.04918	441.88290	-66.47328	623.18854	-814.54193	-16.55091	532.54425	-230.21887	136.55754	535.03247	-205.71721	-165.97116	577.42743	639.83588	-19.32343	575.33325	665.77014	
4406	44.050	-162.63185	28.50604	-182.61928	264.33627	27.45520	-111.64536	-268.08792	3.54525	432.78503	159.77689	8.37400	442.28174	-64.49268	624.98322	-817.72546	-15.98143	532.98193	-229.56010	137.28293	535.29688	-205.26419	-164.02002	576.57190	640.66388	-17.32438	574.26074	666.34216	
4407	44.060	-162.25528	28.79127	-182.37367	265.20346	27.87952	-111.36716	-267.37848	2.95367	433.18149	160.75029	7.36259	442.44934	-61.85873	627.08136	-820.30945	-16.13636	533.11658	-229.06235	137.44493	535.41705	-204.96193	-162.16341	575.78699	641.69812	-15.10609	573.41058	666.90137	
4408	44.070	-161.82758	29.12809	-182.02078	265.79535	28.65501	-110.84657	-266.62668	2.11287	433.35852	161.67267	6.32297	442.65738	-56.41969	629.39453	-820.80273	-16.15489	533.34796	-228.42552	137.67201	535.55670	-204.59410	-160.03256	574.76855	642.62561	-13.42557	572.52417	667.82019	
4409	44.080	-161.20050	29.61839	-181.49010	265.98355	28.61805	-111.06163	-265.86264	1.34147	433.81363	162.24484	5.36591	442.72058	-52.97001	631.66479	-823.26007	-15.41661	533.20551	-227.70161	137.70210	535.72662	-204.38748	-158.54829	573.65631	643.37274	-11.55198	571.41217	668.20148	
4410	44.090	-160.52365	29.93711	-180.83626	266.57663	29.11321	-110.84486	-265.07275	0.71306	434.11322	162.91254	4.33235	443.02832	-49.98756	634.46063	-826.19977	-15.95167	533.64172	-227.26767	137.80655	535.98615	-204.20032	-156.82736	572.58942	644.17822	-9.85270	570.21783	668.64557	
4411	44.100	-160.20923	30.16292	-180.59297	267.36041	29.41694	-110.51653	-264.64792	-0.01509	434.47141	163.81450	3.59850	443.27005	-44.56292	637.40240	-827.08398	-15.68264	533.88153	-226.77687	138.14178	536.30157	-203.86954	-155.54367	571.54626	644.91516	-8.29978	569.36420	669.32764	
4412	44.110	-159.67731	30.81409	-180.39917	267.82425	29.60224	-110.24826	-263.75003	-1.21451	434.65884	164.36385	2.62607	443.53088	-38.64082	640.04797	-827.96149	-16.03942	534.52966	-226.39471	138.66158	536.63110	-203.56993	-154.31892	570.31073	645.51636	-7.33926	568.04340	670.07239	
4413	44.120	-158.98059	31.47802	-180.07765	268.20264	29.67723	-110.09776	-263.41260	-2.11350	434.92410	164.92091	1.76992	443.73163	-32.96556	642.78192	-828.18787	-14.76295	534.99396	-225.79228	139.24384	537.26154	-203.15819	-153.88179	568.98438	646.01990	-6.85382	566.71588	670.21124	
4414	44.130	-158.55705	31.87708	-179.70959	268.83069	29.78777	-109.69277	-263.11142	-2.93416	435.13956	165.19180	1.32895	444.02249	-27.65252	645.27130	-828.18018	-13.50006	535.65710	-225.29819	140.75494	538.04486	-202.31752	-153.65793	567.65088	646.48743	-6.44575	565.38116	670.98853	
4415	44.140	-157.80345	32.55091	-179.45552	269.80197	30.14636	-108.92851	-262.78128	-3.82046	435.42584	165.62613	0.51601	444.63791	-22.26702	647.70532	-827.93768	-11.69800	536.42761	-224.87103	142.17416	538.76447	-201.70747	-153.76697	566.30609	646.63214	-6.84309	564.24841	671.39899	
4416	44.150	-157.26662	33.48938	-179.00673	270.50848	30.76357	-108.25003	-262.70795	-4.81082	435.54663	165.82297	-0.06103	445.00156	-17.70070	649.90265	-827.21747	-9.82195	537.30969	-224.55736	143.99225	539.54370	-200.78520	-154.03635	564.86603	646.82196	-7.22047	562.73334	671.84271	
